<?xml version="1.0" standalone="no"?>
<!DOCTYPE svg PUBLIC "-//W3C//DTD SVG 20010904//EN"
 "http://www.w3.org/TR/2001/REC-SVG-20010904/DTD/svg10.dtd">
<svg version="1.0" xmlns="http://www.w3.org/2000/svg"
 width="1000.000000pt" height="1000.000000pt" viewBox="0 0 1000.000000 1000.000000"
 preserveAspectRatio="xMidYMid meet">

<g transform="translate(0.000000,1000.000000) scale(0.100000,-0.100000)"
fill="#000000" stroke="none">
<path d="M0 5000 l0 -5000 5000 0 5000 0 0 5000 0 5000 -5000 0 -5000 0 0
-5000z m6494 1964 c14 -14 16 -89 16 -680 l0 -664 205 0 c192 0 206 -1 225
-20 15 -15 20 -33 20 -69 0 -85 26 -81 -521 -81 -467 0 -477 0 -503 21 -21 16
-26 29 -26 62 0 81 16 87 239 87 l181 0 0 594 0 595 -164 3 c-145 3 -166 5
-185 22 -30 28 -29 89 4 121 l24 25 235 0 c200 0 237 -2 250 -16z m-4400 -107
c27 -19 36 -79 36 -239 l0 -148 260 0 261 0 24 -25 c17 -16 25 -35 25 -60 0
-25 -8 -44 -25 -60 l-24 -25 -261 0 -260 0 0 -239 c0 -318 14 -387 88 -429 87
-49 193 -38 402 41 146 55 188 61 219 33 49 -45 30 -118 -42 -160 -58 -33
-227 -91 -313 -106 -101 -18 -253 -9 -328 20 -81 31 -156 105 -186 185 -21 56
-23 80 -28 358 l-5 297 -119 0 c-113 0 -120 1 -143 25 -31 30 -33 83 -6 116
18 23 27 24 145 27 l126 4 0 151 c0 160 10 220 38 236 24 15 95 13 116 -2z
m1380 0 c27 -19 36 -79 36 -239 l0 -148 260 0 261 0 24 -25 c17 -16 25 -35 25
-60 0 -25 -8 -44 -25 -60 l-24 -25 -261 0 -260 0 0 -239 c0 -318 14 -387 88
-429 87 -49 193 -38 402 41 146 55 188 61 219 33 49 -45 30 -118 -42 -160 -58
-33 -227 -91 -313 -106 -101 -18 -253 -9 -328 20 -81 31 -156 105 -186 185
-21 56 -23 80 -28 358 l-5 297 -119 0 c-113 0 -120 1 -143 25 -31 30 -33 83
-6 116 18 23 27 24 145 27 l126 4 0 151 c0 160 10 220 38 236 24 15 95 13 116
-2z m1731 -312 c74 -20 156 -72 195 -127 17 -23 39 -70 50 -106 18 -58 20 -93
20 -378 l0 -314 43 0 c67 -1 130 -17 144 -36 22 -30 16 -82 -12 -110 -24 -24
-27 -25 -161 -22 -134 3 -137 4 -156 29 -11 14 -22 44 -25 66 l-5 41 -78 -53
c-129 -88 -248 -121 -400 -113 -148 9 -264 79 -322 196 -20 41 -23 62 -23 157
0 100 3 115 27 160 54 104 173 182 322 210 100 19 273 19 373 0 43 -8 82 -15
86 -15 12 0 -3 90 -23 135 -31 70 -87 106 -186 120 -70 9 -159 -9 -275 -56
-112 -45 -147 -48 -177 -16 -67 71 -22 155 109 203 119 43 361 58 474 29z
m-3163 -1982 c17 -15 18 -42 18 -440 l0 -424 164 138 165 138 -30 18 c-50 32
-52 103 -4 125 17 8 94 12 224 12 185 0 200 -1 225 -21 18 -15 26 -30 26 -53
0 -49 -33 -73 -120 -90 -96 -18 -123 -29 -184 -73 -94 -67 -227 -187 -222
-200 3 -7 101 -116 218 -243 l213 -229 74 -1 c63 0 78 -4 98 -22 32 -30 32
-90 -2 -123 -24 -25 -25 -25 -232 -25 -240 0 -253 4 -253 70 0 30 6 43 30 63
16 14 35 27 42 29 8 3 -48 71 -137 167 -83 90 -160 175 -172 190 l-22 26 -50
-50 -51 -49 0 -186 c0 -156 -3 -190 -18 -220 l-17 -35 -149 -3 c-142 -2 -150
-1 -173 19 -17 17 -23 33 -23 63 0 69 26 86 129 86 l71 0 0 595 0 595 -64 0
c-73 0 -122 14 -136 40 -18 33 -11 79 15 105 23 24 28 25 176 25 128 0 155 -3
171 -17z m1380 0 c17 -15 18 -42 18 -440 l0 -424 164 138 165 138 -30 18 c-50
32 -52 103 -4 125 17 8 94 12 224 12 185 0 200 -1 225 -21 18 -15 26 -30 26
-53 0 -49 -33 -73 -120 -90 -96 -18 -123 -29 -184 -73 -94 -67 -227 -187 -222
-200 3 -7 101 -116 218 -243 l213 -229 74 -1 c63 0 78 -4 98 -22 32 -30 32
-90 -2 -123 -24 -25 -25 -25 -232 -25 -240 0 -253 4 -253 70 0 30 6 43 30 63
16 14 35 27 42 29 8 3 -48 71 -137 167 -83 90 -160 175 -172 190 l-22 26 -50
-50 -51 -49 0 -186 c0 -156 -3 -190 -18 -220 l-17 -35 -149 -3 c-142 -2 -150
-1 -173 19 -17 17 -23 33 -23 63 0 69 26 86 129 86 l71 0 0 595 0 595 -64 0
c-73 0 -122 14 -136 40 -18 33 -11 79 15 105 23 24 28 25 176 25 128 0 155 -3
171 -17z m2760 0 c17 -15 18 -42 18 -440 l0 -424 164 138 165 138 -30 18 c-50
32 -52 103 -4 125 17 8 94 12 224 12 185 0 200 -1 225 -21 18 -15 26 -30 26
-53 0 -49 -33 -73 -120 -90 -96 -18 -123 -29 -184 -73 -94 -67 -227 -187 -222
-200 3 -7 101 -116 218 -243 l213 -229 74 -1 c63 0 78 -4 98 -22 32 -30 32
-90 -2 -123 -24 -25 -25 -25 -232 -25 -240 0 -253 4 -253 70 0 30 6 43 30 63
16 14 35 27 42 29 8 3 -48 71 -137 167 -83 90 -160 175 -172 190 l-22 26 -50
-50 -51 -49 0 -186 c0 -156 -3 -190 -18 -220 l-17 -35 -149 -3 c-142 -2 -150
-1 -173 19 -17 17 -23 33 -23 63 0 69 26 86 129 86 l71 0 0 595 0 595 -64 0
c-73 0 -122 14 -136 40 -18 33 -11 79 15 105 23 24 28 25 176 25 128 0 155 -3
171 -17z m-977 -418 c74 -20 156 -72 195 -127 17 -23 39 -70 50 -106 18 -58
20 -93 20 -378 l0 -314 43 0 c67 -1 130 -17 144 -36 22 -30 16 -82 -12 -110
-24 -24 -27 -25 -161 -22 -134 3 -137 4 -156 29 -11 14 -22 44 -25 66 l-5 41
-78 -53 c-129 -88 -248 -121 -400 -113 -148 9 -264 79 -322 196 -20 41 -23 62
-23 157 0 100 3 115 27 160 54 104 173 182 322 210 100 19 273 19 373 0 43 -8
82 -15 86 -15 12 0 -3 90 -23 135 -31 70 -87 106 -186 120 -70 9 -159 -9 -275
-56 -112 -45 -147 -48 -177 -16 -67 71 -22 155 109 203 119 43 361 58 474 29z"/>
<path d="M4960 6004 c-89 -15 -141 -29 -181 -50 -141 -71 -161 -228 -40 -311
111 -76 351 -34 481 83 55 50 70 87 70 172 l0 70 -65 16 c-66 16 -219 28 -265
20z"/>
<path d="M4960 3604 c-89 -15 -141 -29 -181 -50 -141 -71 -161 -228 -40 -311
111 -76 351 -34 481 83 55 50 70 87 70 172 l0 70 -65 16 c-66 16 -219 28 -265
20z"/>
</g>
</svg>
